<?xml version="1.0" encoding="utf-8"?>
<!-- Generator: Adobe Illustrator 21.1.0, SVG Export Plug-In . SVG Version: 6.00 Build 0)  -->
<svg version="1.0" id="Ebene_1" xmlns="http://www.w3.org/2000/svg" xmlns:xlink="http://www.w3.org/1999/xlink" x="0px" y="0px"
	 viewBox="0 0 283.5 70.9" style="enable-background:new 0 0 283.5 70.9;" xml:space="preserve">
<style type="text/css">
	.st0{fill:#46C1BE;}
	.st1{fill:#0C5581;}
	.st2{fill:#FFC233;}
	.st3{fill:#2FB56A;}
	.st4{fill:#F49AC1;}
</style>
<g>
	<path class="st0" d="M51.5,63.9c3.9,0,7.1-3.2,7.1-7.1s-3.2-7.1-7.1-7.1s-7.1,3.2-7.1,7.1S47.5,63.9,51.5,63.9"/>
	<path class="st1" d="M9,55.6c3.9,0,7.1-3.2,7.1-7.1s-3.2-7.1-7.1-7.1s-7.1,3.2-7.1,7.1S5,55.6,9,55.6"/>
	<path class="st0" d="M22.7,37.6c3.9,0,7.1-3.2,7.1-7.1s-3.2-7.1-7.1-7.1s-7.1,3.2-7.1,7.1S18.7,37.6,22.7,37.6"/>
	<path class="st2" d="M40.3,30.3c3.9,0,7.1-3.2,7.1-7.1S44.3,16,40.3,16s-7.1,3.2-7.1,7.1S36.4,30.3,40.3,30.3"/>
	<path class="st1" d="M43.2,47c3.9,0,7.1-3.2,7.1-7.1s-3.2-7.1-7.1-7.1c-3.9,0-7.1,3.2-7.1,7.1S39.2,47,43.2,47"/>
	<path class="st3" d="M7.1,32.7c3.9,0,7.1-3.2,7.1-7.1c0-3.9-3.2-7.1-7.1-7.1S0,21.7,0,25.6C0,29.6,3.2,32.7,7.1,32.7"/>
	<path class="st4" d="M27,54.6c3.9,0,7.1-3.2,7.1-7.1s-3.2-7.1-7.1-7.1s-7.1,3.2-7.1,7.1S23.1,54.6,27,54.6"/>
	<path class="st0" d="M46.5,14.2c3.9,0,7.1-3.2,7.1-7.1S50.5,0,46.5,0s-7.1,3.2-7.1,7.1S42.6,14.2,46.5,14.2"/>
	<path class="st1" d="M58.6,32.7c3.9,0,7.1-3.2,7.1-7.1c0-3.9-3.2-7.1-7.1-7.1s-7.1,3.2-7.1,7.1C51.5,29.6,54.7,32.7,58.6,32.7"/>
	<path class="st1" d="M32.7,70.9c3.9,0,7.1-3.2,7.1-7.1s-3.2-7.1-7.1-7.1s-7.1,3.2-7.1,7.1S28.8,70.9,32.7,70.9"/>
	<path class="st0" d="M62.7,49.4c3.9,0,7.1-3.2,7.1-7.1s-3.2-7.1-7.1-7.1c-3.9,0-7.1,3.2-7.1,7.1S58.8,49.4,62.7,49.4"/>
	<path class="st1" d="M23.6,17.5c3.9,0,7.1-3.2,7.1-7.1s-3.2-7.1-7.1-7.1s-7.1,3.2-7.1,7.1S19.7,17.5,23.6,17.5"/>
	<path class="st1" d="M246.5,44v-0.6c0-2-0.9-4.1-3.3-4.1c-3,0-3.5,2.7-3.5,4.4c0,1.7,0.6,4.4,3.5,4.4c1.5,0,2.6-0.8,3.1-2.1
		l-1.1-0.4c-0.1,0.5-0.7,1.5-2,1.5c-1.1,0-2.2-0.8-2.2-3.1H246.5z M240.9,43c0.2-1.7,0.9-2.8,2.2-2.8c1.3,0,2,1.3,2,2.8H240.9z
		 M241.9,38.4h1l2-2h-1.5L241.9,38.4z M235.5,40.1h-1.3v0.9h1.3v4.8c0,0.9,0.3,2.2,2.1,2.2c0.2,0,0.7-0.1,1.2-0.2v-1
		c-0.4,0.2-0.7,0.2-1.1,0.2c-0.9,0-1-0.6-1-1.3v-4.6h2v-0.9h-2v-2.6l-1.3,0.5V40.1z M226.5,47.9h1.3v-6c0.5-0.6,1.3-1.5,2.4-1.5
		c1,0,1.2,0.8,1.2,1.7v5.8h1.3v-6.2c0-1.6-0.8-2.4-2.1-2.4c-1.3,0-2.2,0.9-2.9,1.5v-1.4h-1.3V47.9z M223.1,43.6v1.9
		c-1.2,1.3-1.8,1.4-2.4,1.4c-1,0-1.4-0.7-1.4-1.5c0-1.3,1.1-1.8,2.9-1.8H223.1z M219.6,41.7c0.4-0.9,0.9-1.5,1.9-1.5
		c1.6,0,1.6,1.4,1.6,1.9v0.5h-1.2c-2.3,0-3.8,1-3.8,2.9c0,1.1,0.6,2.4,2.4,2.4c1,0,1.8-0.4,2.6-1.5h0v1.4h1.3
		c-0.1-0.5-0.1-0.8-0.1-1v-4.4c0-1.5-0.3-3.2-2.8-3.2c-2,0-2.7,1.1-3.1,2.1L219.6,41.7z M210.9,45.9c0.4,1.4,1.6,2.1,3,2.1
		c2.4,0,3-1.5,3-2.5c0-1.3-0.7-1.9-2.1-2.4l-1.2-0.4c-0.9-0.3-1.2-0.6-1.2-1.3c0-0.9,0.7-1.3,1.5-1.3c0.7,0,1.4,0.4,1.6,1.3l1.1-0.4
		c-0.3-0.7-0.8-1.9-2.7-1.9c-1.2,0-2.8,0.6-2.8,2.3c0,1.4,1,2,2.2,2.3l0.6,0.2c1.1,0.3,1.7,0.6,1.7,1.5c0,0.6-0.4,1.4-1.7,1.4
		c-1.1,0-1.6-0.6-1.9-1.5L210.9,45.9z M204,43.6v1.9c-1.2,1.3-1.8,1.4-2.4,1.4c-1,0-1.4-0.7-1.4-1.5c0-1.3,1.1-1.8,2.9-1.8H204z
		 M200.5,41.7c0.4-0.9,0.9-1.5,1.9-1.5c1.6,0,1.6,1.4,1.6,1.9v0.5h-1.2c-2.3,0-3.8,1-3.8,2.9c0,1.1,0.6,2.4,2.4,2.4
		c1,0,1.8-0.4,2.6-1.5h0v1.4h1.3c-0.1-0.5-0.1-0.8-0.1-1v-4.4c0-1.5-0.3-3.2-2.8-3.2c-2,0-2.7,1.1-3.1,2.1L200.5,41.7z M195.9,47.9
		h1.3V36.8h-1.3V47.9z M186.1,47.9h1.3V42c1.1-1.4,2.2-1.4,2.8-1.4v-1.3c-1.1,0-2,0.6-2.8,1.6h0v-1.5h-1.3V47.9z M183.9,39.4h-1.3v6
		c-0.5,0.6-1.3,1.5-2.4,1.5c-1,0-1.2-0.8-1.2-1.7v-5.8h-1.3v6.2c0,1.6,0.8,2.4,2.1,2.4c1.3,0,2.2-0.9,2.9-1.5v1.4h1.3V39.4z
		 M170,45.9c0.4,1.4,1.6,2.1,3,2.1c2.4,0,3-1.5,3-2.5c0-1.3-0.7-1.9-2.1-2.4l-1.2-0.4c-0.9-0.3-1.2-0.6-1.2-1.3
		c0-0.9,0.7-1.3,1.5-1.3c0.7,0,1.4,0.4,1.6,1.3l1.1-0.4c-0.3-0.7-0.8-1.9-2.7-1.9c-1.2,0-2.8,0.6-2.8,2.3c0,1.4,1,2,2.2,2.3l0.6,0.2
		c1.1,0.3,1.7,0.6,1.7,1.5c0,0.6-0.4,1.4-1.7,1.4c-1.1,0-1.6-0.6-1.9-1.5L170,45.9z M164.7,44v-0.6c0-2-0.9-4.1-3.3-4.1
		c-3,0-3.5,2.7-3.5,4.4c0,1.7,0.6,4.4,3.5,4.4c1.5,0,2.6-0.8,3.1-2.1l-1.1-0.4c-0.1,0.5-0.7,1.5-2,1.5c-1.1,0-2.2-0.8-2.2-3.1H164.7
		z M159.2,43c0.2-1.7,0.9-2.8,2.2-2.8c1.3,0,2,1.3,2,2.8H159.2z M150.6,45.9c0.4,1.4,1.6,2.1,3,2.1c2.4,0,3-1.5,3-2.5
		c0-1.3-0.7-1.9-2.1-2.4l-1.2-0.4c-0.9-0.3-1.2-0.6-1.2-1.3c0-0.9,0.7-1.3,1.5-1.3c0.7,0,1.4,0.4,1.6,1.3l1.1-0.4
		c-0.3-0.7-0.8-1.9-2.7-1.9c-1.2,0-2.8,0.6-2.8,2.3c0,1.4,1,2,2.2,2.3l0.6,0.2c1.1,0.3,1.7,0.6,1.7,1.5c0,0.6-0.4,1.4-1.7,1.4
		c-1.1,0-1.6-0.6-1.9-1.5L150.6,45.9z M143.6,45.9c0.4,1.4,1.6,2.1,3,2.1c2.4,0,3-1.5,3-2.5c0-1.3-0.7-1.9-2.1-2.4l-1.2-0.4
		c-0.9-0.3-1.2-0.6-1.2-1.3c0-0.9,0.7-1.3,1.5-1.3c0.7,0,1.4,0.4,1.6,1.3l1.1-0.4c-0.3-0.7-0.8-1.9-2.7-1.9c-1.2,0-2.8,0.6-2.8,2.3
		c0,1.4,1,2,2.2,2.3l0.6,0.2c1.1,0.3,1.7,0.6,1.7,1.5c0,0.6-0.4,1.4-1.7,1.4c-1.1,0-1.6-0.6-1.9-1.5L143.6,45.9z M140.6,38h1.4v-1.3
		h-1.4V38z M140.6,47.9h1.3v-8.4h-1.3V47.9z M138.3,39.4h-1.3v6c-0.5,0.6-1.3,1.5-2.4,1.5c-1,0-1.2-0.8-1.2-1.7v-5.8h-1.3v6.2
		c0,1.6,0.8,2.4,2.1,2.4c1.3,0,2.2-0.9,2.9-1.5v1.4h1.3V39.4z M124.4,45.9c0.4,1.4,1.6,2.1,3,2.1c2.4,0,3-1.5,3-2.5
		c0-1.3-0.7-1.9-2.1-2.4l-1.2-0.4c-0.9-0.3-1.2-0.6-1.2-1.3c0-0.9,0.7-1.3,1.5-1.3c0.7,0,1.4,0.4,1.6,1.3l1.1-0.4
		c-0.3-0.7-0.8-1.9-2.7-1.9c-1.2,0-2.8,0.6-2.8,2.3c0,1.4,1,2,2.2,2.3l0.6,0.2c1.1,0.3,1.7,0.6,1.7,1.5c0,0.6-0.4,1.4-1.7,1.4
		c-1.1,0-1.6-0.6-1.9-1.5L124.4,45.9z M119.1,44v-0.6c0-2-0.9-4.1-3.3-4.1c-3,0-3.5,2.7-3.5,4.4c0,1.7,0.6,4.4,3.5,4.4
		c1.5,0,2.6-0.8,3.1-2.1l-1.1-0.4c-0.1,0.5-0.7,1.5-2,1.5c-1.1,0-2.2-0.8-2.2-3.1H119.1z M113.6,43c0.2-1.7,0.9-2.8,2.2-2.8
		c1.3,0,2,1.3,2,2.8H113.6z M110.5,36.8h-1.3v3.7c-0.9-1-1.6-1.3-2.5-1.3c-1.3,0-2.9,0.9-2.9,4.3c0,2.8,1.2,4.4,3.1,4.4
		c1.3,0,2-0.8,2.3-1.3h0v1.1h1.3V36.8z M109.3,45.7c-0.2,0.5-0.9,1.3-2,1.3c-1.8,0-2.1-2.1-2.1-3.5c0-1.1,0.2-3.2,2-3.2
		c0.8,0,1.6,0.6,2,1.3V45.7z M102.1,39.4h-1.3v6c-0.5,0.6-1.3,1.5-2.4,1.5c-1,0-1.2-0.8-1.2-1.7v-5.8H96v6.2c0,1.6,0.8,2.4,2.1,2.4
		c1.3,0,2.2-0.9,2.9-1.5v1.4h1.3V39.4z M91.3,40.1h-1.3v0.9h1.3v4.8c0,0.9,0.3,2.2,2.1,2.2c0.2,0,0.7-0.1,1.2-0.2v-1
		C94.2,47,94,47,93.6,47c-0.9,0-1-0.6-1-1.3v-4.6h2v-0.9h-2v-2.6L91.3,38V40.1z M82.6,47.9h6.2v-1.1H84v-3.7h4.5v-1.1H84v-3.3h4.8
		v-1.1h-6.1V47.9z M84.4,37.1h1l2-2h-1.5L84.4,37.1z"/>
	<path class="st1" d="M223.4,29.7h1.8v-1.9h-1.8V29.7z M222,23c-0.3-1-1.3-2-3.2-2c-1.6,0-3.1,0.7-3.1,2.6c0,1.3,0.9,2,2.1,2.4
		l1.3,0.4c0.5,0.1,1,0.3,0.9,1c0,0.4-0.3,1.1-1.3,1.1c-0.9,0-1.3-0.5-1.6-1.3l-1.8,0.5c0.2,0.7,0.8,2.2,3,2.2c1.9,0,3.6-0.5,3.6-2.8
		c0-1.3-0.8-2-1.9-2.3l-1.6-0.5c-0.4-0.1-0.9-0.3-0.9-0.9c0-0.7,0.6-1,1.1-1c1.2,0,1.4,0.7,1.5,1.1L222,23z M214,21.2h-2.1v5.9
		c-0.7,0.7-1.2,1.1-1.8,1.1c-0.6,0-1-0.4-1-1.2v-5.7h-2.1v6.2c0,1.3,0.4,2.5,2,2.5c1.2,0,2.2-0.8,2.9-1.5v1.3h2.1V21.2z M197.7,25.4
		c0,2.8,1.5,4.5,3.9,4.5c2.3,0,3.9-1.7,3.9-4.5c0-2.6-1.4-4.4-3.9-4.4C199.2,21,197.7,22.8,197.7,25.4 M199.8,25.5
		c0-2.1,0.7-3,1.8-3c1.1,0,1.8,0.9,1.8,3c0,2.2-0.7,3-1.8,3C200.5,28.4,199.8,27.6,199.8,25.5 M196.7,21.9h-2v-2.8l-2.1,0.9v1.9
		h-1.2v1.5h1.2v3.8c0,1.4,0.6,2.7,2.5,2.7c0.7,0,1.4-0.2,1.6-0.3v-1.5c-0.3,0.1-0.7,0.2-1,0.2c-1,0-1-0.6-1-1.5v-3.5h2V21.9z
		 M181.7,29.7h2.1v-5.7c0.5-0.5,1.1-1.2,2.1-1.2c0.2,0,0.5,0,0.7,0.1v-1.9c-0.1,0-0.3,0-0.4,0c-1,0-1.9,0.8-2.4,1.5h0v-1.3h-2.1
		V29.7z M179.6,21.2h-2.1v5.9c-0.7,0.7-1.2,1.1-1.8,1.1c-0.6,0-1-0.4-1-1.2v-5.7h-2.1v6.2c0,1.3,0.4,2.5,2,2.5
		c1.2,0,2.2-0.8,2.9-1.5v1.3h2.1V21.2z M163.3,25.4c0,2.8,1.5,4.5,3.9,4.5c2.3,0,3.9-1.7,3.9-4.5c0-2.6-1.4-4.4-3.9-4.4
		C164.9,21,163.3,22.8,163.3,25.4 M165.5,25.5c0-2.1,0.7-3,1.8-3c1.1,0,1.8,0.9,1.8,3c0,2.2-0.7,3-1.8,3
		C166.2,28.4,165.5,27.6,165.5,25.5 M157,24.4v-3.2h1.9c1,0,1.4,0.7,1.4,1.5c0,1.1-0.6,1.8-1.9,1.8H157z M154.8,29.7h2.1v-3.8h1.9
		c1.7,0,3.4-0.9,3.4-3.2c0-1.7-1-3.1-3.4-3.1h-4V29.7z M146.8,29.7h1.8v-1.9h-1.8V29.7z M142.4,20.2h2.1v-1.5h-2.1V20.2z
		 M142.4,29.7h2.1v-8.5h-2.1V29.7z M133,25.4c0,2.8,1.5,4.5,3.9,4.5c2.3,0,3.9-1.7,3.9-4.5c0-2.6-1.4-4.4-3.9-4.4
		C134.5,21,133,22.8,133,25.4 M135.1,25.5c0-2.1,0.7-3,1.8-3c1.1,0,1.8,0.9,1.8,3c0,2.2-0.7,3-1.8,3
		C135.8,28.4,135.1,27.6,135.1,25.5 M119.8,29.7h2.1v-5.9c0.8-0.9,1.1-1.1,1.7-1.1c0.6,0,1,0.5,1,1.3v5.7h2.1v-5.9
		c0.8-0.9,1.1-1.1,1.7-1.1c0.6,0,1,0.5,1,1.3v5.7h2.1v-6.2c0-1.5-0.6-2.5-2.1-2.5c-1.1,0-2,0.7-2.7,1.4c-0.3-0.8-0.9-1.4-2-1.4
		c-1.1,0-1.8,0.7-2.6,1.4v-1.3h-2.1V29.7z M109.4,29.7h2.1v-5.7c0.5-0.5,1.1-1.2,2.1-1.2c0.2,0,0.5,0,0.7,0.1v-1.9
		c-0.1,0-0.3,0-0.4,0c-1,0-1.9,0.8-2.4,1.5h0v-1.3h-2.1V29.7z M107.2,21.2h-2.1v5.9c-0.7,0.7-1.2,1.1-1.8,1.1c-0.6,0-1-0.4-1-1.2
		v-5.7h-2.1v6.2c0,1.3,0.4,2.5,2,2.5c1.2,0,2.2-0.8,2.9-1.5v1.3h2.1V21.2z M91,25.4c0,2.8,1.5,4.5,3.9,4.5c2.3,0,3.9-1.7,3.9-4.5
		c0-2.6-1.4-4.4-3.9-4.4C92.5,21,91,22.8,91,25.4 M93.1,25.5c0-2.1,0.7-3,1.8-3s1.8,0.9,1.8,3c0,2.2-0.7,3-1.8,3
		S93.1,27.6,93.1,25.5 M84.6,24.4v-3.2h1.9c1,0,1.4,0.7,1.4,1.5c0,1.1-0.6,1.8-1.9,1.8H84.6z M82.4,29.7h2.1v-3.8h1.9
		c1.7,0,3.4-0.9,3.4-3.2c0-1.7-1-3.1-3.4-3.1h-4V29.7z"/>
</g>
</svg>
