<?xml version="1.0" encoding="utf-8"?>
<!-- Generator: Adobe Illustrator 21.1.0, SVG Export Plug-In . SVG Version: 6.00 Build 0)  -->
<svg version="1.0" id="Ebene_1" xmlns="http://www.w3.org/2000/svg" xmlns:xlink="http://www.w3.org/1999/xlink" x="0px" y="0px"
	 viewBox="0 0 283.5 70.9" style="enable-background:new 0 0 283.5 70.9;" xml:space="preserve">
<style type="text/css">
	.st0{fill:#46C1BE;}
	.st1{fill:#0C5581;}
	.st2{fill:#FFC233;}
	.st3{fill:#2FB56A;}
	.st4{fill:#F49AC1;}
</style>
<g>
	<path class="st0" d="M51.5,63.9c3.9,0,7.1-3.2,7.1-7.1c0-3.9-3.2-7.1-7.1-7.1c-3.9,0-7.1,3.2-7.1,7.1
		C44.4,60.7,47.5,63.9,51.5,63.9L51.5,63.9z"/>
	<path class="st1" d="M9,55.6c3.9,0,7.1-3.2,7.1-7.1c0-3.9-3.2-7.1-7.1-7.1c-3.9,0-7.1,3.2-7.1,7.1C1.9,52.4,5,55.6,9,55.6L9,55.6z"
		/>
	<path class="st0" d="M22.7,37.6c3.9,0,7.1-3.2,7.1-7.1c0-3.9-3.2-7.1-7.1-7.1s-7.1,3.2-7.1,7.1C15.6,34.4,18.7,37.6,22.7,37.6
		L22.7,37.6z"/>
	<path class="st2" d="M40.3,30.3c3.9,0,7.1-3.2,7.1-7.1c0-3.9-3.2-7.1-7.1-7.1s-7.1,3.2-7.1,7.1C33.2,27.1,36.4,30.3,40.3,30.3
		L40.3,30.3z"/>
	<path class="st1" d="M43.2,47c3.9,0,7.1-3.2,7.1-7.1c0-3.9-3.2-7.1-7.1-7.1c-3.9,0-7.1,3.2-7.1,7.1C36.1,43.8,39.2,47,43.2,47
		L43.2,47z"/>
	<path class="st3" d="M7.1,32.7c3.9,0,7.1-3.2,7.1-7.1c0-3.9-3.2-7.1-7.1-7.1c-3.9,0-7.1,3.2-7.1,7.1C0,29.6,3.2,32.7,7.1,32.7
		L7.1,32.7z"/>
	<path class="st4" d="M27,54.6c3.9,0,7.1-3.2,7.1-7.1c0-3.9-3.2-7.1-7.1-7.1c-3.9,0-7.1,3.2-7.1,7.1C19.9,51.4,23.1,54.6,27,54.6
		L27,54.6z"/>
	<path class="st0" d="M46.5,14.2c3.9,0,7.1-3.2,7.1-7.1c0-3.9-3.2-7.1-7.1-7.1c-3.9,0-7.1,3.2-7.1,7.1C39.4,11,42.6,14.2,46.5,14.2
		L46.5,14.2z"/>
	<path class="st1" d="M58.6,32.7c3.9,0,7.1-3.2,7.1-7.1c0-3.9-3.2-7.1-7.1-7.1s-7.1,3.2-7.1,7.1C51.5,29.6,54.7,32.7,58.6,32.7
		L58.6,32.7z"/>
	<path class="st1" d="M32.7,70.9c3.9,0,7.1-3.2,7.1-7.1c0-3.9-3.2-7.1-7.1-7.1c-3.9,0-7.1,3.2-7.1,7.1
		C25.6,67.7,28.8,70.9,32.7,70.9L32.7,70.9z"/>
	<path class="st0" d="M62.7,49.4c3.9,0,7.1-3.2,7.1-7.1c0-3.9-3.2-7.1-7.1-7.1c-3.9,0-7.1,3.2-7.1,7.1
		C55.6,46.2,58.8,49.4,62.7,49.4L62.7,49.4z"/>
	<path class="st1" d="M23.6,17.5c3.9,0,7.1-3.2,7.1-7.1c0-3.9-3.2-7.1-7.1-7.1c-3.9,0-7.1,3.2-7.1,7.1
		C16.5,14.3,19.7,17.5,23.6,17.5L23.6,17.5z"/>
	<path class="st1" d="M82.1,45.9c0.2,0.8,1,2.2,3.3,2.2c2.9,0,3.5-1.9,3.5-2.8c0-1.8-1.2-2.4-1.9-2.6l-1.8-0.8
		c-0.7-0.3-1.3-0.6-1.3-1.6c0-0.9,0.5-1.6,1.8-1.6c0.7,0,1.6,0.3,1.8,1.2l1.3-0.4c-0.5-1.4-1.7-1.9-3.1-1.9c-1.5,0-3.2,0.8-3.2,2.8
		c0,1.1,0.6,1.8,1.5,2.2l2.5,1.1c0.4,0.2,1.1,0.5,1.1,1.6c0,0.9-0.7,1.8-2,1.8c-1.4,0-1.9-0.9-2.1-1.6L82.1,45.9L82.1,45.9z
		 M96.7,41.5c-0.6-1.6-1.5-2.2-2.8-2.2c-3,0-3.5,2.7-3.5,4.4c0,1.9,0.6,4.4,3.3,4.4c1.9,0,2.5-1,3-2.2l-1.1-0.4
		c-0.3,1-1,1.5-1.9,1.5c-1.6,0-2-1.7-2-3.4c0-1.6,0.5-3.4,2.2-3.4c1.2,0,1.5,1.2,1.6,1.6L96.7,41.5L96.7,41.5z M98.3,47.9h1.3v-6
		c0.5-0.6,1.3-1.5,2.4-1.5c1,0,1.2,0.8,1.2,1.7v5.8h1.3v-6.2c0-1.6-0.8-2.4-2.1-2.4c-1.3,0-2.2,0.9-2.9,1.5v-4h-1.3V47.9L98.3,47.9z
		 M107.2,39.4h-1.4l2.4,8.4h1.6l1.5-5.8c0.1-0.4,0.2-0.8,0.2-1.2h0.1c0,0.4,0.1,0.8,0.2,1.2l1.5,5.8h1.6l2.3-8.4H116l-1.3,5.1
		c-0.2,0.7-0.3,1.4-0.4,2h-0.1c-0.1-0.7-0.3-1.4-0.4-2l-1.4-5.1h-1.6l-1.3,5.1c-0.2,0.7-0.3,1.4-0.4,2H109c-0.1-0.7-0.3-1.4-0.4-2
		L107.2,39.4L107.2,39.4z M119.4,43c0.2-1.7,0.9-2.8,2.2-2.8c1.3,0,2,1.3,2,2.8H119.4L119.4,43z M125,44v-0.6c0-2-0.9-4.1-3.3-4.1
		c-3,0-3.5,2.7-3.5,4.4c0,1.7,0.6,4.4,3.5,4.4c1.5,0,2.6-0.8,3.1-2.1l-1.1-0.4c-0.1,0.5-0.7,1.5-2,1.5c-1.1,0-2.2-0.8-2.2-3.1H125
		L125,44z M126.8,47.9h1.3v-8.4h-1.3V47.9L126.8,47.9z M126.7,38h1.4v-1.3h-1.4V38L126.7,38z M129.9,39.4v1h4.5l-4.6,6.5v1h6.2v-1
		h-4.7l4.6-6.5v-1H129.9L129.9,39.4z M138.3,43c0.2-1.7,0.9-2.8,2.2-2.8c1.3,0,2,1.3,2,2.8H138.3L138.3,43z M143.8,44v-0.6
		c0-2-0.9-4.1-3.3-4.1c-3,0-3.5,2.7-3.5,4.4c0,1.7,0.6,4.4,3.5,4.4c1.5,0,2.6-0.8,3.1-2.1l-1.1-0.4c-0.1,0.5-0.7,1.5-2,1.5
		c-1.1,0-2.2-0.8-2.2-3.1H143.8L143.8,44z M145.6,47.9h1.3V42c1.1-1.4,2.2-1.4,2.8-1.4v-1.3c-1.1,0-2,0.6-2.8,1.6h0v-1.5h-1.3V47.9
		L145.6,47.9z M162.8,42.5h-3.3v1.1h2v3c-0.4,0.2-1.1,0.5-2.2,0.5c-2.7,0-3-2.7-3-4.2c0-1.9,0.7-4.2,3-4.2c1.4,0,2.1,1,2.3,1.8
		l1.3-0.3c-0.3-0.7-0.9-2.5-3.6-2.5c-2.1,0-4.4,1.4-4.4,5.3c0,2.6,1.1,5.3,4.4,5.3c1.3,0,2.2-0.3,3.5-1V42.5L162.8,42.5z M165.8,43
		c0.2-1.7,0.9-2.8,2.2-2.8c1.3,0,2,1.3,2,2.8H165.8L165.8,43z M171.4,44v-0.6c0-2-0.9-4.1-3.3-4.1c-3,0-3.5,2.7-3.5,4.4
		c0,1.7,0.6,4.4,3.5,4.4c1.5,0,2.6-0.8,3.1-2.1l-1.1-0.4c-0.1,0.5-0.7,1.5-2,1.5c-1.1,0-2.2-0.8-2.2-3.1H171.4L171.4,44z
		 M172.5,45.9c0.4,1.4,1.6,2.1,3,2.1c2.4,0,3-1.5,3-2.5c0-1.3-0.7-1.9-2.1-2.4l-1.2-0.4c-0.9-0.3-1.2-0.6-1.2-1.3
		c0-0.9,0.7-1.3,1.5-1.3c0.7,0,1.4,0.4,1.6,1.3l1.1-0.4c-0.3-0.7-0.8-1.9-2.7-1.9c-1.2,0-2.8,0.6-2.8,2.3c0,1.4,1,2,2.2,2.3l0.6,0.2
		c1.1,0.3,1.7,0.6,1.7,1.5c0,0.6-0.4,1.4-1.7,1.4c-1.1,0-1.6-0.6-1.9-1.5L172.5,45.9L172.5,45.9z M186.4,39.4h-1.3v6
		c-0.5,0.6-1.3,1.5-2.4,1.5c-1,0-1.2-0.8-1.2-1.7v-5.8h-1.3v6.2c0,1.6,0.8,2.4,2.1,2.4c1.3,0,2.2-0.9,2.9-1.5v1.4h1.3V39.4
		L186.4,39.4z M188.6,47.9h1.3v-6c0.5-0.6,1.3-1.5,2.4-1.5c1,0,1.2,0.8,1.2,1.7v5.8h1.3v-6.2c0-1.6-0.8-2.4-2.1-2.4
		c-1.3,0-2.2,0.9-2.9,1.5v-1.4h-1.3V47.9L188.6,47.9z M201.9,45.7c-0.2,0.5-0.9,1.3-2,1.3c-1.8,0-2.1-2.1-2.1-3.5
		c0-1.1,0.2-3.2,2-3.2c0.8,0,1.6,0.6,2,1.3V45.7L201.9,45.7z M203.2,36.8h-1.3v3.7c-0.9-1-1.6-1.3-2.5-1.3c-1.3,0-2.9,0.9-2.9,4.3
		c0,2.8,1.2,4.4,3.1,4.4c1.3,0,2-0.8,2.3-1.3h0v1.1h1.3V36.8L203.2,36.8z M205.4,47.9h1.3v-6c0.5-0.6,1.3-1.5,2.4-1.5
		c1,0,1.2,0.8,1.2,1.7v5.8h1.3v-6.2c0-1.6-0.8-2.4-2.1-2.4c-1.3,0-2.2,0.9-2.9,1.5v-4h-1.3V47.9L205.4,47.9z M214.6,43
		c0.2-1.7,0.9-2.8,2.2-2.8c1.3,0,2,1.3,2,2.8H214.6L214.6,43z M220.2,44v-0.6c0-2-0.9-4.1-3.3-4.1c-3,0-3.5,2.7-3.5,4.4
		c0,1.7,0.6,4.4,3.5,4.4c1.5,0,2.6-0.8,3.1-2.1l-1.1-0.4c-0.1,0.5-0.7,1.5-2,1.5c-1.1,0-2.2-0.8-2.2-3.1H220.2L220.2,44z M222,47.9
		h1.3v-8.4H222V47.9L222,47.9z M222,38h1.4v-1.3H222V38L222,38z M226.2,40.1h-1.3v0.9h1.3v4.8c0,0.9,0.3,2.2,2.1,2.2
		c0.2,0,0.7-0.1,1.2-0.2v-1c-0.4,0.2-0.7,0.2-1.1,0.2c-0.9,0-1-0.6-1-1.3v-4.6h2v-0.9h-2v-2.6l-1.3,0.5V40.1L226.2,40.1z
		 M230.2,45.9c0.4,1.4,1.6,2.1,3,2.1c2.4,0,3-1.5,3-2.5c0-1.3-0.7-1.9-2.1-2.4l-1.2-0.4c-0.9-0.3-1.2-0.6-1.2-1.3
		c0-0.9,0.7-1.3,1.5-1.3c0.7,0,1.4,0.4,1.6,1.3l1.1-0.4c-0.3-0.7-0.8-1.9-2.7-1.9c-1.2,0-2.8,0.6-2.8,2.3c0,1.4,1,2,2.2,2.3l0.6,0.2
		c1.1,0.3,1.7,0.6,1.7,1.5c0,0.6-0.4,1.4-1.7,1.4c-1.1,0-1.6-0.6-1.9-1.5L230.2,45.9L230.2,45.9z M237.2,45.9c0.4,1.4,1.6,2.1,3,2.1
		c2.4,0,3-1.5,3-2.5c0-1.3-0.7-1.9-2.1-2.4l-1.2-0.4c-0.9-0.3-1.2-0.6-1.2-1.3c0-0.9,0.7-1.3,1.5-1.3c0.7,0,1.4,0.4,1.6,1.3l1.1-0.4
		c-0.3-0.7-0.8-1.9-2.7-1.9c-1.2,0-2.8,0.6-2.8,2.3c0,1.4,1,2,2.2,2.3l0.6,0.2c1.1,0.3,1.7,0.6,1.7,1.5c0,0.6-0.4,1.4-1.7,1.4
		c-1.1,0-1.6-0.6-1.9-1.5L237.2,45.9L237.2,45.9z M245.6,40.1h-1.3v0.9h1.3v4.8c0,0.9,0.3,2.2,2.1,2.2c0.2,0,0.7-0.1,1.2-0.2v-1
		c-0.4,0.2-0.7,0.2-1.1,0.2c-0.9,0-1-0.6-1-1.3v-4.6h2v-0.9h-2v-2.6l-1.3,0.5V40.1L245.6,40.1z M256.4,39.4h-1.3v6
		c-0.5,0.6-1.3,1.5-2.4,1.5c-1,0-1.2-0.8-1.2-1.7v-5.8h-1.3v6.2c0,1.6,0.8,2.4,2.1,2.4c1.3,0,2.2-0.9,2.9-1.5v1.4h1.3V39.4
		L256.4,39.4z M263.5,45.7c-0.2,0.5-0.9,1.3-2,1.3c-1.8,0-2.1-2.1-2.1-3.5c0-1.1,0.2-3.2,2-3.2c0.8,0,1.6,0.6,2,1.3V45.7L263.5,45.7
		z M264.8,36.8h-1.3v3.7c-0.9-1-1.6-1.3-2.5-1.3c-1.3,0-2.9,0.9-2.9,4.3c0,2.8,1.2,4.4,3.1,4.4c1.3,0,2-0.8,2.3-1.3h0v1.1h1.3V36.8
		L264.8,36.8z M267.1,47.9h1.3v-8.4h-1.3V47.9L267.1,47.9z M267,38h1.4v-1.3H267V38L267,38z M271.5,43c0.2-1.7,0.9-2.8,2.2-2.8
		c1.3,0,2,1.3,2,2.8H271.5L271.5,43z M277,44v-0.6c0-2-0.9-4.1-3.3-4.1c-3,0-3.5,2.7-3.5,4.4c0,1.7,0.6,4.4,3.5,4.4
		c1.5,0,2.6-0.8,3.1-2.1l-1.1-0.4c-0.1,0.5-0.7,1.5-2,1.5c-1.1,0-2.2-0.8-2.2-3.1H277L277,44z"/>
	<path class="st1" d="M82.6,29.7h2.1v-4.1h4.3V24h-4.3v-2.8h4.5v-1.6h-6.6V29.7L82.6,29.7z M94.8,18.6v1.5h2.1v-1.5H94.8L94.8,18.6z
		 M91.8,18.6v1.5h2.1v-1.5H91.8L91.8,18.6z M97.8,21.2h-2.1v5.9c-0.7,0.7-1.2,1.1-1.8,1.1c-0.6,0-1-0.4-1-1.2v-5.7h-2.1v6.2
		c0,1.3,0.4,2.5,2,2.5c1.2,0,2.2-0.8,2.9-1.5v1.3h2.1V21.2L97.8,21.2z M99.9,29.7h2.1v-5.7c0.5-0.5,1.1-1.2,2.1-1.2
		c0.2,0,0.5,0,0.7,0.1v-1.9c-0.1,0-0.3,0-0.4,0c-1,0-1.9,0.8-2.4,1.5h0v-1.3h-2.1V29.7L99.9,29.7z M110.4,29.7h2.1v-5.9
		c0.8-0.9,1.1-1.1,1.7-1.1c0.6,0,1,0.5,1,1.3v5.7h2.1v-5.9c0.8-0.9,1.1-1.1,1.7-1.1c0.6,0,1,0.5,1,1.3v5.7h2.1v-6.2
		c0-1.5-0.6-2.5-2.1-2.5c-1.1,0-2,0.7-2.7,1.4c-0.3-0.8-0.9-1.4-2-1.4c-1.1,0-1.8,0.7-2.6,1.4v-1.3h-2.1V29.7L110.4,29.7z M124,29.7
		h2.1v-8.5H124V29.7L124,29.7z M124,20.2h2.1v-1.5H124V20.2L124,20.2z M132.9,26.9c-0.1,0.6-0.5,1.5-1.4,1.5c-1.3,0-1.6-1.3-1.6-3.1
		c0-1.9,0.4-2.9,1.5-2.9c0.9,0,1.3,0.8,1.3,1.6l1.9-0.5c-0.1-0.8-1-2.5-3.2-2.5c-2.7,0-3.7,2-3.7,4.5c0,2.2,0.9,4.4,3.6,4.4
		c2.4,0,3-1.5,3.3-2.5L132.9,26.9L132.9,26.9z M136.1,29.7h2.1v-5.9c0.7-0.7,1.2-1.1,1.8-1.1c0.7,0,1.1,0.4,1.1,1.2v5.7h2.1v-6.2
		c0-1.3-0.4-2.5-2.1-2.5c-1.2,0-2.2,0.8-2.9,1.4v-3.8h-2.1V29.7L136.1,29.7z M145.5,29.7h1.8v-1.9h-1.8V29.7L145.5,29.7z
		 M153.7,29.7h2.1v-4.1h4.3V24h-4.3v-2.8h4.5v-1.6h-6.6V29.7L153.7,29.7z M165.9,18.6v1.5h2.1v-1.5H165.9L165.9,18.6z M162.8,18.6
		v1.5h2.1v-1.5H162.8L162.8,18.6z M168.8,21.2h-2.1v5.9c-0.7,0.7-1.2,1.1-1.8,1.1c-0.6,0-1-0.4-1-1.2v-5.7h-2.1v6.2
		c0,1.3,0.4,2.5,2,2.5c1.2,0,2.2-0.8,2.9-1.5v1.3h2.1V21.2L168.8,21.2z M170.9,29.7h2.1v-5.7c0.5-0.5,1.1-1.2,2.1-1.2
		c0.2,0,0.5,0,0.7,0.1v-1.9c-0.1,0-0.3,0-0.4,0c-1,0-1.9,0.8-2.4,1.5h0v-1.3h-2.1V29.7L170.9,29.7z M185.8,29.7h2
		c0-0.4-0.1-1.1-0.1-1.5v-4.2c0-2.3-1.4-3.1-3.3-3.1c-2.1,0-2.9,1-3.4,2.2l1.8,0.5c0.3-0.8,0.5-1.3,1.5-1.3c1,0,1.4,0.6,1.4,1.3v0.7
		h-0.9c-2.3,0-4.1,0.8-4.1,2.9c0,1.5,0.9,2.6,2.4,2.6c1.1,0,2-0.7,2.6-1.5L185.8,29.7L185.8,29.7z M185.8,27.3c-0.9,0.8-1.2,1-2,1
		c-0.7,0-1.1-0.5-1.1-1.2c0-1,0.7-1.5,2.4-1.5h0.6V27.3L185.8,27.3z M189.7,29.7h2.1V18.6h-2.1V29.7L189.7,29.7z M193.9,29.7h2.1
		V18.6h-2.1V29.7L193.9,29.7z M203.1,27.2c-0.1,0.5-0.7,1.3-1.6,1.3c-1.5,0-1.8-1.5-1.8-2.5h5.5v-0.8c0-2.3-1.2-4.2-3.6-4.2
		c-2.5,0-3.9,1.8-3.9,4.4c0,2.8,1.5,4.5,3.9,4.5c1.9,0,2.9-1,3.3-2.2L203.1,27.2L203.1,27.2z M199.7,24.6c0.1-1.1,0.5-2.2,1.8-2.1
		c1,0,1.6,0.8,1.6,2.1H199.7L199.7,24.6z M206.5,29.7h1.8v-1.9h-1.8V29.7L206.5,29.7z"/>
</g>
</svg>
